<svg width="99" height="99" fill="none" xmlns="http://www.w3.org/2000/svg"><circle cx="49.5" cy="49.5" r="46" fill="#2378C9" stroke="#67A9E9" stroke-width="7"/><path d="M46.402 55.608l-9.11-9.001a3.124 3.124 0 00-2.224-.921 3.13 3.13 0 00-1.613.443V35.293c0-.553-.144-1.073-.396-1.525a1.614 1.614 0 012.132 1.525v7.965a.766.766 0 101.532 0v-7.965a3.148 3.148 0 00-3.144-3.144 3.13 3.13 0 00-1.634.459 3.126 3.126 0 00-1.634-.459 3.148 3.148 0 00-3.144 3.145l.013 15.103c0 .677.251 1.632.583 2.222l.016.028 9.435 15.228c.199.362.378 1.052.378 1.46v2.886a.766.766 0 001.532 0v-2.887c0-.677-.25-1.632-.582-2.222a.603.603 0 00-.017-.028l-9.434-15.228c-.199-.363-.379-1.053-.38-1.46L28.7 35.293a1.613 1.613 0 013.224 0V48.83c0 .02.002.038.003.056.014.787.32 1.569.918 2.167l7.318 7.319a.766.766 0 001.084-1.084l-7.318-7.318a1.602 1.602 0 01-.473-1.14c0-.43.168-.836.473-1.14a1.6 1.6 0 011.14-.473c.43 0 .835.168 1.143.476l9.111 9.001c1.014 1.013 1.87 3.08 1.87 4.513v11.027a.766.766 0 101.531 0V61.207c0-1.838-1.018-4.296-2.32-5.6zM69.69 32.149c-.599 0-1.158.168-1.634.459a3.13 3.13 0 00-1.635-.46 3.148 3.148 0 00-3.144 3.145v7.965a.766.766 0 001.532 0v-7.965a1.614 1.614 0 012.132-1.525 3.124 3.124 0 00-.396 1.525V46.13a3.125 3.125 0 00-1.612-.444c-.84 0-1.63.328-2.22.918l-9.118 9.008c-1.3 1.3-2.318 3.758-2.318 5.596v11.027a.766.766 0 001.532 0V61.207c0-1.433.855-3.5 1.866-4.51l9.117-9.007c.305-.305.71-.472 1.14-.472.431 0 .836.167 1.14.472a1.6 1.6 0 01.473 1.14c0 .43-.168.836-.472 1.14l-7.318 7.318a.766.766 0 001.083 1.084l7.318-7.319c.598-.598.904-1.38.918-2.166l.003-.057V35.293a1.614 1.614 0 013.225 0l-.014 15.103c0 .407-.18 1.097-.379 1.46l-9.434 15.228a.981.981 0 00-.017.028c-.331.59-.581 1.545-.581 2.222v2.887a.766.766 0 001.531 0v-2.887c0-.407.18-1.097.379-1.459l9.434-15.228a.981.981 0 00.016-.028c.332-.59.583-1.545.583-2.222l.014-15.104a3.148 3.148 0 00-3.145-3.144z" fill="#fff"/><path d="M60.979 30.617a.766.766 0 00.766-.766v-4.085a.766.766 0 00-.766-.766H39.02a.766.766 0 00-.766.766v4.085c0 .423.343.766.766.766h.256v1.532h-.256a.766.766 0 00-.766.766V37c0 .423.343.766.766.766h.256v1.532h-.256a.766.766 0 00-.766.766v4.085c0 .423.343.766.766.766h21.96a.766.766 0 00.766-.766v-4.085a.766.766 0 00-.766-.766h-.255v-1.532h.255a.766.766 0 00.766-.766v-4.085a.766.766 0 00-.766-.766h-.255v-1.532h.255zm-.766 12.766H39.787V40.83h20.426v2.553zm0-7.149h-3.32a.766.766 0 100 1.532h2.299v1.532H40.809v-1.532h13.02a.766.766 0 100-1.532H39.788v-2.553h20.426v2.553zM40.809 32.15v-1.532h18.383v1.532H40.808zm19.404-3.064H39.787v-2.553h20.426v2.553z" fill="#fff"/></svg>