<svg width="40" height="40" fill="none" xmlns="http://www.w3.org/2000/svg"><circle cx="20" cy="20" r="20" fill="#E7E7E7"/><g clip-path="url(#clip0_1_350)"><path d="M20.142 27.353c3.404 0 2.19-2.155 2.453-2.775-.004-.462-.008-.907.008-1.178.216.06.724.319 1.775 1.34 1.623 1.637 2.038 2.613 3.349 2.613h2.412c.765 0 1.163-.317 1.362-.583.192-.256.38-.707.174-1.41-.538-1.69-3.677-4.608-3.872-4.916a2.7 2.7 0 01.101-.171h-.002c.62-.82 2.984-4.362 3.332-5.78a.019.019 0 00.002-.008c.189-.647.016-1.066-.162-1.304-.269-.355-.697-.534-1.274-.534h-2.413c-.808 0-1.42.407-1.73 1.149-.519 1.319-1.976 4.03-3.068 4.99-.033-1.36-.01-2.398.007-3.17.035-1.504.15-2.969-1.413-2.969h-3.792c-.978 0-1.914 1.069-.9 2.337.886 1.112.318 1.732.51 4.816-.746-.8-2.072-2.957-3.009-5.715-.263-.746-.66-1.437-1.781-1.437H9.798c-.978 0-1.563.533-1.563 1.426 0 2.006 4.44 13.279 11.907 13.279zm-7.931-13.235c.213 0 .234 0 .392.449.96 2.826 3.113 7.008 4.685 7.008 1.182 0 1.182-1.21 1.182-1.666l-.001-3.63c-.065-1.2-.502-1.799-.79-2.161l3.44.003c.002.017-.02 4.015.01 4.984 0 1.375 1.092 2.163 2.796.438 1.8-2.03 3.044-5.066 3.094-5.19.073-.176.137-.235.368-.235h2.423l-.002.008c-.22 1.03-2.398 4.31-3.127 5.329l-.033.049c-.32.523-.581 1.102.044 1.915h.001c.057.07.205.23.42.453.671.693 2.971 3.06 3.175 4-.135.022-.282.006-2.561.011-.486 0-.865-.725-2.313-2.186-1.302-1.267-2.147-1.784-2.917-1.784-1.494 0-1.385 1.212-1.372 2.68.006 1.59-.004 1.086.006 1.186-.087.035-.337.103-.989.103-6.22 0-10.271-9.873-10.427-11.76.054-.005.796-.002 2.496-.004z" fill="#302D2D"/></g><defs><clipPath id="clip0_1_350"><path fill="#fff" transform="translate(8.235 8.235)" d="M0 0h23.529v23.529H0z"/></clipPath></defs></svg>