<svg width="85" height="65" fill="none" xmlns="http://www.w3.org/2000/svg"><path d="M7.594 59.283C2.848 54.066 0 48.375 0 38.89 0 22.29 11.865 7.589 28.477 0l4.271 6.166C17.086 14.703 13.764 25.61 12.815 32.724c2.373-1.422 5.695-1.897 9.017-1.422C30.375 32.25 37.02 38.89 37.02 47.9c0 4.268-1.899 8.536-4.746 11.856-3.323 3.32-7.12 4.743-11.866 4.743-5.22 0-9.967-2.372-12.814-5.217zm47.461 0c-4.746-5.217-7.594-10.908-7.594-20.393 0-16.6 11.866-31.301 28.477-38.89l4.271 6.166C64.547 14.703 61.225 25.61 60.276 32.724c2.373-1.422 5.695-1.897 9.017-1.422 8.543.948 15.188 7.588 15.188 16.599 0 4.268-1.898 8.536-4.746 11.856-2.848 3.32-7.12 4.743-11.865 4.743-5.221 0-9.967-2.372-12.815-5.217z" fill="#302D2D" fill-opacity=".04"/></svg>