<svg width="21" height="16" fill="none" xmlns="http://www.w3.org/2000/svg"><g clip-path="url(#clip0_1_16)"><path d="M19.031.5H1.97C.883.5 0 1.341 0 2.375v11.25C0 14.659.883 15.5 1.969 15.5H19.03c1.086 0 1.969-.841 1.969-1.875V2.375C21 1.341 20.117.5 19.031.5zm0 1.25c.09 0 .174.018.252.048L10.5 9.048l-8.783-7.25a.681.681 0 01.252-.048H19.03zm0 12.5H1.97c-.362 0-.657-.28-.657-.625V3.119l8.758 7.228a.675.675 0 00.43.153.67.67 0 00.43-.153l8.758-7.228v10.506c0 .345-.295.625-.657.625z" fill="#fff"/></g><defs><clipPath id="clip0_1_16"><path fill="#fff" d="M0 0h21v16H0z"/></clipPath></defs></svg>