<svg width="25" height="25" fill="none" xmlns="http://www.w3.org/2000/svg"><path d="M24.81 11.667l-4.612-3.939.016-.086V2.491a.574.574 0 00-.555-.566h-2.576c-.297 0-.54.264-.54.566v2.133l-3.69-3.147a.539.539 0 00-.7 0L.194 11.662a.539.539 0 10.69.83l.01-.01 11.607-9.884 4.155 3.54 2.484 2.113 4.974 4.236a.538.538 0 00.76-.06.544.544 0 00-.065-.76zm-5.68-4.85l-1.508-1.271V3.008h1.509v3.81z" fill="#302D2D"/><path d="M22.434 12.756l-1.514-1.293-8.067-6.892a.539.539 0 00-.7 0l-8.068 6.892-1.514 1.293a.538.538 0 00-.059.76.524.524 0 00.744.064l.005-.005.674-.582v10.104c.005.301.253.55.555.555h16.02a.565.565 0 00.555-.555V12.993l.674.582a.54.54 0 00.345.13c.156 0 .307-.07.41-.19a.533.533 0 00-.06-.76zm-7.776 9.813h-4.31v-5.82h4.31v5.82zm1.078 0v-6.343c0-.296-.221-.555-.518-.555H9.787c-.297 0-.518.259-.518.555v6.343H5.012V12.072l7.49-6.38 7.49 6.38v10.497h-4.256z" fill="#302D2D"/></svg>