<svg width="18" height="23" fill="none" xmlns="http://www.w3.org/2000/svg"><g clip-path="url(#clip0_1_24)" fill="#fff"><path d="M8.436 22.7a.68.68 0 001.128 0c1.605-2.392 3.968-5.346 5.615-8.35 1.317-2.403 1.957-4.452 1.957-6.264C17.136 3.627 13.486 0 9 0 4.514 0 .864 3.627.864 8.086c0 1.812.64 3.861 1.957 6.263 1.646 3.003 4.014 5.964 5.615 8.35zM9 1.348c3.739 0 6.78 3.022 6.78 6.738 0 1.581-.586 3.42-1.792 5.619-1.42 2.59-3.445 5.216-4.988 7.425-1.543-2.208-3.569-4.835-4.988-7.425-1.206-2.2-1.792-4.038-1.792-5.62C2.22 4.37 5.26 1.349 9 1.349z"/><path d="M9 12.129c2.243 0 4.068-1.814 4.068-4.043 0-2.23-1.825-4.043-4.068-4.043-2.243 0-4.068 1.814-4.068 4.043 0 2.23 1.825 4.043 4.068 4.043zM9 5.39a2.707 2.707 0 012.712 2.695A2.707 2.707 0 019 10.78a2.707 2.707 0 01-2.712-2.695A2.707 2.707 0 019 5.39z"/></g><defs><clipPath id="clip0_1_24"><path fill="#fff" d="M0 0h18v23H0z"/></clipPath></defs></svg>