<svg width="47" height="47" fill="none" xmlns="http://www.w3.org/2000/svg"><g clip-path="url(#clip0_216_1292)"><path d="M41.873 0a5.132 5.132 0 00-5.127 5.127c0 .885.224 1.717.62 2.444l-8.4 8.4a6.788 6.788 0 00-8.37-.001l-6.553-6.554c.3-.508.484-1.093.484-1.725a3.422 3.422 0 00-3.418-3.418A3.422 3.422 0 007.691 7.69a3.422 3.422 0 003.418 3.418c.633 0 1.217-.184 1.725-.484l6.554 6.553a6.796 6.796 0 000 8.37L8.566 36.371a5.102 5.102 0 00-3.439-1.335A5.132 5.132 0 000 40.164c0 2.827 2.3 5.127 5.127 5.127 2.828 0 5.128-2.3 5.128-5.127 0-.885-.225-1.717-.62-2.444l10.962-10.963a6.796 6.796 0 003.331 1.383v8.682a5.13 5.13 0 00-4.273 5.05c0 2.828 2.3 5.128 5.128 5.128 2.827 0 5.127-2.3 5.127-5.127 0-2.536-1.852-4.641-4.273-5.05V28.14a6.796 6.796 0 003.331-1.383l6.554 6.553a3.371 3.371 0 00-.486 1.726 3.422 3.422 0 003.419 3.419 3.422 3.422 0 003.418-3.419 3.422 3.422 0 00-3.418-3.418c-.633 0-1.217.184-1.726.485l-6.553-6.554a6.796 6.796 0 000-8.37l8.259-8.26a5.099 5.099 0 003.438 1.335A5.13 5.13 0 0047 5.128C47 2.3 44.7 0 41.873 0zM9.4 7.69a1.71 1.71 0 013.418 0A1.71 1.71 0 0111.11 9.4 1.71 1.71 0 019.4 7.69zM5.127 43.583a3.422 3.422 0 01-3.418-3.418 3.422 3.422 0 013.418-3.419 3.422 3.422 0 013.418 3.419 3.422 3.422 0 01-3.418 3.418zm23.073-1.71a3.422 3.422 0 01-3.418 3.419 3.422 3.422 0 01-3.418-3.418 3.422 3.422 0 013.418-3.418 3.422 3.422 0 013.418 3.418zm-3.418-15.381a5.132 5.132 0 01-5.128-5.127c0-2.828 2.3-5.128 5.128-5.128 2.828 0 5.127 2.3 5.127 5.128 0 2.827-2.3 5.127-5.127 5.127zm15.382 8.545a1.71 1.71 0 01-1.71 1.71 1.71 1.71 0 01-1.709-1.71 1.71 1.71 0 013.418 0zm1.709-26.49a3.422 3.422 0 01-3.418-3.419 3.422 3.422 0 013.418-3.418 3.422 3.422 0 013.418 3.418 3.422 3.422 0 01-3.418 3.418z" fill="#fff"/></g><defs><clipPath id="clip0_216_1292"><path fill="#fff" d="M0 0h47v47H0z"/></clipPath></defs></svg>