<svg width="16" height="16" fill="none" xmlns="http://www.w3.org/2000/svg"><g clip-path="url(#clip0_1_11)"><path d="M3.26 10.636a16.973 16.973 0 005.646 4.422c.826.392 1.93.856 3.16.935.076.004.15.007.225.007.826 0 1.489-.285 2.03-.872.003-.003.01-.01.013-.017.192-.232.41-.44.64-.663.155-.149.315-.305.467-.464.706-.736.706-1.67-.007-2.383l-1.992-1.993c-.338-.351-.743-.537-1.167-.537-.425 0-.832.186-1.18.534L9.908 10.79a7.503 7.503 0 00-.329-.172 4.105 4.105 0 01-.364-.199c-1.081-.686-2.062-1.581-3-2.732-.475-.6-.793-1.104-1.015-1.618.311-.281.603-.576.885-.865.1-.103.202-.205.305-.308.358-.358.55-.773.55-1.194 0-.42-.189-.835-.55-1.193l-.988-.988c-.116-.116-.225-.229-.338-.345A18.184 18.184 0 004.39.511C4.049.176 3.648 0 3.224 0c-.421 0-.826.176-1.18.514l-1.24 1.24c-.451.45-.707.998-.76 1.631-.063.792.083 1.634.461 2.652.58 1.575 1.456 3.037 2.755 4.599zM.853 3.455c.04-.441.21-.81.527-1.128l1.234-1.233c.192-.186.404-.282.61-.282.202 0 .408.096.597.289.222.205.43.42.656.65l.345.351.988.988c.205.205.311.414.311.62 0 .205-.106.414-.311.62l-.309.312c-.308.311-.596.606-.915.888l-.016.017c-.275.275-.232.537-.166.736l.01.026c.255.614.61 1.197 1.164 1.893.994 1.227 2.042 2.178 3.196 2.911.142.093.295.166.437.239.133.066.256.13.365.199l.037.02a.693.693 0 00.321.082.703.703 0 00.494-.225l1.24-1.24c.192-.192.401-.295.607-.295.252 0 .457.156.587.295l1.999 1.996c.398.398.394.829-.01 1.25-.14.15-.285.292-.441.44-.232.226-.474.458-.693.72-.381.411-.835.604-1.422.604-.057 0-.116-.004-.173-.007-1.087-.07-2.098-.494-2.858-.855a16.126 16.126 0 01-5.374-4.21c-1.236-1.49-2.069-2.875-2.619-4.36C.93 4.853.801 4.12.853 3.454z" fill="#fff"/></g><defs><clipPath id="clip0_1_11"><path fill="#fff" d="M0 0h16v16H0z"/></clipPath></defs></svg>