<svg width="99" height="99" fill="none" xmlns="http://www.w3.org/2000/svg"><circle cx="49.5" cy="49.5" r="46" fill="#2378C9" stroke="#67A9E9" stroke-width="7"/><g clip-path="url(#clip0_1_145)" fill="#fff"><path d="M54.754 52.694a14.948 14.948 0 00-4.008-19.44 7.33 7.33 0 00-3.683-6.296 9.176 9.176 0 00-4.548-1.208h-1.53a9.176 9.176 0 00-4.548 1.208 7.33 7.33 0 00-3.683 6.3 14.989 14.989 0 003.926 26.103l-1.365 2.389H29A2.25 2.25 0 0026.75 64v6A2.25 2.25 0 0029 72.25h19.5A2.25 2.25 0 0050.75 70v-6a2.25 2.25 0 00-2.25-2.25h-6.315l-.865-1.514c.144.005.287.014.43.014 2.613 0 5.18-.688 7.444-1.996l12.843 12.844a3.932 3.932 0 005.562-5.56L54.754 52.693zM37.181 28.26a7.682 7.682 0 013.804-1.01h1.53a7.68 7.68 0 013.804 1.01 5.79 5.79 0 012.181 7.885v-.782a5.227 5.227 0 00-.882-2.913l-.744-1.116a.75.75 0 00-1.074-.184l-1 .75a6.789 6.789 0 01-4.05 1.35h-2a3.756 3.756 0 00-3.675 3.014 5.779 5.779 0 012.106-8.004zm1.569 16.277v2.325l-1.205.201a7.013 7.013 0 00-3.9 2.072 8.942 8.942 0 011.4-9.88 6.756 6.756 0 003.705 5.282zm1.5.539a6.553 6.553 0 003 0v1.996a3.297 3.297 0 01-3 0v-1.996zm1.5-1.326a5.256 5.256 0 01-5.25-5.25V37a2.25 2.25 0 012.25-2.25h2a8.306 8.306 0 004.95-1.65l.365-.274.304.456c.412.616.632 1.34.631 2.08V38.5a5.256 5.256 0 01-5.25 5.25zm-3.96 4.795l1.576-.262a4.695 4.695 0 004.77 0l1.575.262a5.517 5.517 0 013.346 1.94 8.972 8.972 0 01-14.611 0 5.517 5.517 0 013.345-1.94zm12.065.592a7.012 7.012 0 00-3.9-2.071l-1.205-.201V44.54a6.755 6.755 0 003.705-5.282 8.943 8.943 0 011.4 9.881v-.002zM48.5 63.25a.75.75 0 01.75.75v6a.75.75 0 01-.75.75H29a.75.75 0 01-.75-.75v-6a.75.75 0 01.75-.75h6.75a.75.75 0 00.651-.375l2.349-4.113 2.349 4.11a.75.75 0 00.651.378h6.75zm-8.07-4.57l-1.029-1.8a.78.78 0 00-1.302 0l-.661 1.156a13.486 13.486 0 01-4.483-23.02 7.35 7.35 0 001.258 2.685l.11.15a10.5 10.5 0 1014.85 0l.11-.15a7.35 7.35 0 001.26-2.685A13.495 13.495 0 0141.75 58.75c-.44 0-.882-.028-1.32-.07zm24.39 12.07a2.414 2.414 0 01-1.72-.713L50.482 57.422a15.09 15.09 0 003.44-3.44l12.615 12.616a2.432 2.432 0 01-1.719 4.152zm-5.162-35.782l-1.38 4.826a.75.75 0 001.2.782l4.022-3.351 4.019 3.35a.75.75 0 001.2-.782l-1.379-4.826 3.438-3.438a.75.75 0 00-.528-1.279h-4.036l-2.039-4.085a.782.782 0 00-1.342 0l-2.046 4.085H56.75a.75.75 0 00-.53 1.28l3.438 3.438zm1.592-3.218a.75.75 0 00.675-.415l1.575-3.158 1.579 3.158a.75.75 0 00.671.415h2.69l-2.47 2.47a.75.75 0 00-.192.736l.831 2.91-2.624-2.192a.75.75 0 00-.961 0l-2.63 2.191.83-2.909a.75.75 0 00-.19-.736l-2.474-2.47h2.69z"/><path d="M73.194 45.713a.75.75 0 00-.694-.463h-4.036l-2.039-4.085a.782.782 0 00-1.343 0l-2.045 4.085H59a.75.75 0 00-.53 1.28l3.438 3.438-1.38 4.826a.75.75 0 001.2.782l4.022-3.351 4.019 3.35a.75.75 0 001.2-.782l-1.379-4.826 3.438-3.438a.75.75 0 00.166-.816zM68.22 49.22a.75.75 0 00-.19.736l.83 2.91-2.625-2.192a.75.75 0 00-.96 0l-2.63 2.191.83-2.909a.75.75 0 00-.191-.736l-2.474-2.47h2.69a.75.75 0 00.675-.415l1.575-3.158 1.579 3.158a.75.75 0 00.671.415h2.69l-2.47 2.47zM47.75 67.75h-18v1.5h18v-1.5zm-1.5-3h-15v1.5h15v-1.5z"/></g><defs><clipPath id="clip0_1_145"><path fill="#fff" transform="translate(26 25)" d="M0 0h48v48H0z"/></clipPath></defs></svg>