<svg width="22" height="22" fill="none" xmlns="http://www.w3.org/2000/svg"><path d="M21.903 4.707a.656.656 0 00-.616-.31l-1.097.095 1.048-2.114a.656.656 0 00-.876-.88l-2.775 1.359c-1.715-.905-3.857-.637-5.33.706-1.23 1.12-1.877 2.844-1.757 4.563-3.215-.323-5.937-2.163-7.546-5.137a.656.656 0 00-1.105-.078C.851 4.26.781 6.11 1.564 7.63a9.942 9.942 0 01-.7-.214.656.656 0 00-.855.73c.31 1.877 1.404 3.32 3.133 4.173a5.516 5.516 0 01-.688.191.656.656 0 00-.345 1.09c1.245 1.332 3.044 1.987 4.321 2.301-1.452 1.138-3.02 1.328-5.3 1.25a.658.658 0 00-.508 1.096c.95 1.047 4.411 2.228 8.05 2.317.143.003.29.005.44.005 2.554 0 5.93-.548 8.354-2.971 1.834-1.834 2.981-3.946 3.41-6.276.346-1.882.127-3.389.022-4.113l-.023-.159 1.026-1.654a.656.656 0 00.002-.69zm-2.304 2.69c.195 1.342.787 5.425-3.06 9.273-2.238 2.237-5.496 2.639-7.836 2.582-1.996-.049-3.782-.43-5.076-.866a8.115 8.115 0 001.436-.301c1.218-.379 2.248-1.06 3.24-2.145a.656.656 0 00-.401-1.093c-.626-.08-2.506-.397-3.986-1.418a7.062 7.062 0 001.23-.653.656.656 0 00-.195-1.182c-1.212-.317-2.674-1.028-3.348-2.615.43.076.898.094 1.398-.018a.656.656 0 00.328-1.096c-.839-.869-1.153-2.12-.883-3.192a11.193 11.193 0 003.277 3.174 10.884 10.884 0 005.525 1.638.658.658 0 00.656-.798c-.34-1.53.145-3.16 1.236-4.154 1.132-1.03 2.804-1.187 4.068-.38a.656.656 0 00.641.036l1.356-.663-.71 1.43a.656.656 0 00.645.945l.956-.083-.44.71c-.148.237-.118.449-.057.87z" fill="#fff"/></svg>