<svg width="40" height="40" viewBox="0 0 40 40" fill="none" xmlns="http://www.w3.org/2000/svg">
<circle cx="20" cy="20" r="20" fill="#E7E7E7"/>
<g clip-path="url(#clip0_1_350)">
<path d="M20.1422 27.3529C23.5461 27.3529 22.3324 25.198 22.5952 24.5783C22.5912 24.1156 22.5873 23.6705 22.603 23.3999C22.8187 23.4607 23.3275 23.7185 24.3785 24.7401C26.001 26.3774 26.4157 27.3529 27.7265 27.3529H30.1393C30.904 27.3529 31.302 27.0362 31.501 26.7705C31.6932 26.5136 31.8814 26.0627 31.6755 25.3607C31.1373 23.6705 27.9981 20.7519 27.803 20.444C27.8324 20.3872 27.8795 20.3117 27.904 20.2725H27.902C28.5216 19.4538 30.8863 15.9107 31.2344 14.4931C31.2354 14.4911 31.2363 14.4881 31.2363 14.4852C31.4246 13.8381 31.252 13.4185 31.0736 13.1813C30.805 12.8264 30.3775 12.647 29.8001 12.647H27.3873C26.5795 12.647 25.9667 13.0538 25.6569 13.796C25.1383 15.1146 23.6814 17.8264 22.5893 18.7862C22.5559 17.4264 22.5785 16.3881 22.5961 15.6166C22.6314 14.1117 22.7452 12.647 21.1834 12.647H17.3912C16.4128 12.647 15.4765 13.7156 16.4903 14.9842C17.3765 16.096 16.8089 16.7156 17.0001 19.7999C16.255 19.0009 14.9295 16.8431 13.9922 14.0852C13.7295 13.3391 13.3314 12.648 12.2108 12.648H9.7981C8.81967 12.648 8.23535 13.1813 8.23535 14.0744C8.23535 16.0803 12.6755 27.3529 20.1422 27.3529ZM12.2108 14.1185C12.4236 14.1185 12.4452 14.1185 12.603 14.5666C13.5628 17.3931 15.7157 21.5754 17.2883 21.5754C18.4697 21.5754 18.4697 20.3646 18.4697 19.9087L18.4687 16.2793C18.404 15.0783 17.9667 14.4803 17.6795 14.1176L21.1187 14.1215C21.1206 14.1381 21.0991 18.1362 21.1285 19.1048C21.1285 20.4803 22.2206 21.2685 23.9255 19.5431C25.7246 17.5127 26.9687 14.4774 27.0187 14.3538C27.0922 14.1774 27.1559 14.1176 27.3873 14.1176H29.8001H29.8099C29.8089 14.1205 29.8089 14.1234 29.8079 14.1264C29.5873 15.1558 27.4099 18.4362 26.6814 19.4548C26.6697 19.4705 26.6589 19.4872 26.6481 19.5038C26.3275 20.0274 26.0667 20.6058 26.6922 21.4195H26.6932C26.7501 21.4881 26.8981 21.6489 27.1138 21.8725C27.7844 22.5646 30.0844 24.9313 30.2883 25.8725C30.153 25.894 30.0059 25.8783 27.7265 25.8832C27.2412 25.8832 26.8618 25.1578 25.4138 23.697C24.1118 22.4303 23.2667 21.9127 22.4971 21.9127C21.003 21.9127 21.1118 23.1254 21.1255 24.5921C21.1305 26.1823 21.1206 25.6793 21.1314 25.7793C21.0442 25.8136 20.7942 25.8823 20.1422 25.8823C13.9216 25.8823 9.87065 16.0087 9.71476 14.1215C9.76868 14.1166 10.5108 14.1195 12.2108 14.1185Z" fill="#302D2D"/>
</g>
<defs>
<clipPath id="clip0_1_350">
<rect width="23.5294" height="23.5294" fill="white" transform="translate(8.23535 8.23535)"/>
</clipPath>
</defs>
</svg>
