<svg width="16" height="16" viewBox="0 0 16 16" fill="none" xmlns="http://www.w3.org/2000/svg">
<g clip-path="url(#clip0_5_709)">
<path d="M9.76221 8.00024L15.7444 2.01781C15.9089 1.85312 15.9997 1.63342 16 1.39914C16 1.16473 15.9092 0.944765 15.7444 0.780342L15.2202 0.256245C15.0553 0.0911714 14.8356 0.000764847 14.6011 0.000764847C14.367 0.000764847 14.1472 0.0911714 13.9824 0.256245L8.00026 6.23829L2.01782 0.256245C1.85327 0.0911714 1.63343 0.000764847 1.39902 0.000764847C1.16488 0.000764847 0.945041 0.0911714 0.780488 0.256245L0.256 0.780342C-0.0853333 1.12168 -0.0853333 1.67686 0.256 2.01781L6.23831 8.00024L0.256 13.9824C0.0913171 14.1474 0.000650406 14.3671 0.000650406 14.6013C0.000650406 14.8356 0.0913171 15.0553 0.256 15.2201L0.780358 15.7442C0.94491 15.9092 1.16488 15.9997 1.39889 15.9997C1.6333 15.9997 1.85314 15.9092 2.01769 15.7442L8.00013 9.76207L13.9823 15.7442C14.1471 15.9092 14.3668 15.9997 14.601 15.9997H14.6012C14.8355 15.9997 15.0552 15.9092 15.22 15.7442L15.7443 15.2201C15.9088 15.0555 15.9996 14.8356 15.9996 14.6013C15.9996 14.3671 15.9088 14.1474 15.7443 13.9826L9.76221 8.00024Z" fill="white"/>
</g>
<defs>
<clipPath id="clip0_5_709">
<rect width="16" height="16" fill="white"/>
</clipPath>
</defs>
</svg>
