<svg width="85" height="65" viewBox="0 0 85 65" fill="none" xmlns="http://www.w3.org/2000/svg">
<path d="M7.59379 59.2828C2.84767 54.066 0 48.3748 0 38.8897C0 22.2906 11.8653 7.58862 28.4767 0.000488281L32.7482 6.16585C17.086 14.7025 13.7638 25.6104 12.8145 32.7243C15.1876 31.3015 18.5099 30.8273 21.8322 31.3015C30.3752 32.2501 37.0197 38.8897 37.0197 47.9006C37.0197 52.1689 35.1213 56.4372 32.2736 59.757C28.9513 63.0769 25.1544 64.4996 20.4083 64.4996C15.1876 64.4996 10.4415 62.1283 7.59379 59.2828ZM55.055 59.2828C50.3089 54.066 47.4612 48.3748 47.4612 38.8897C47.4612 22.2906 59.3265 7.58862 75.9379 0.000488281L80.2094 6.16585C64.5472 14.7025 61.225 25.6104 60.2757 32.7243C62.6488 31.3015 65.9711 30.8273 69.2934 31.3015C77.8364 32.2501 84.4809 38.8897 84.4809 47.9006C84.4809 52.1689 82.5825 56.4372 79.7348 59.757C76.8872 63.0769 72.6156 64.4996 67.8695 64.4996C62.6488 64.4996 57.9027 62.1283 55.055 59.2828Z" fill="#302D2D" fill-opacity="0.04"/>
</svg>
