<svg width="25" height="25" viewBox="0 0 25 25" fill="none" xmlns="http://www.w3.org/2000/svg">
<g clip-path="url(#clip0_204_391)">
<circle cx="12.5" cy="12.5" r="12.5" fill="#5EB8F0"/>
<path d="M16.8958 8.0417H7.5208C7.2333 8.0417 7 7.80835 7 7.52085C7 7.23335 7.2333 7 7.5208 7H16.8958C17.1833 7 17.4166 7.23335 17.4166 7.52085C17.4166 7.80835 17.1833 8.0417 16.8958 8.0417Z" fill="white"/>
<path d="M16.8958 12.7292H7.5208C7.2333 12.7292 7 12.4959 7 12.2084C7 11.9209 7.2333 11.6875 7.5208 11.6875H16.8958C17.1833 11.6875 17.4166 11.9209 17.4166 12.2084C17.4166 12.4959 17.1833 12.7292 16.8958 12.7292Z" fill="white"/>
<path d="M16.8958 17.4167H7.5208C7.2333 17.4167 7 17.1833 7 16.8958C7 16.6083 7.2333 16.375 7.5208 16.375H16.8958C17.1833 16.375 17.4166 16.6083 17.4166 16.8958C17.4166 17.1833 17.1833 17.4167 16.8958 17.4167Z" fill="white"/>
</g>
<defs>
<clipPath id="clip0_204_391">
<rect width="25" height="25" fill="white"/>
</clipPath>
</defs>
</svg>
