<svg width="47" height="47" viewBox="0 0 47 47" fill="none" xmlns="http://www.w3.org/2000/svg">
<g clip-path="url(#clip0_216_1292)">
<path d="M41.8727 0C39.045 0 36.7455 2.29958 36.7455 5.12727C36.7455 6.01173 36.9702 6.84405 37.3659 7.57127L28.9665 15.9706C27.8086 15.0691 26.3593 14.5273 24.7818 14.5273C23.2043 14.5273 21.755 15.0691 20.5963 15.9697L14.0427 9.41624C14.3435 8.90778 14.5273 8.32327 14.5273 7.69091C14.5273 5.80578 12.9942 4.27273 11.1091 4.27273C9.22396 4.27273 7.69091 5.80578 7.69091 7.69091C7.69091 9.57604 9.22396 11.1091 11.1091 11.1091C11.7415 11.1091 12.326 10.9254 12.8344 10.6246L19.3879 17.1781C18.4872 18.3368 17.9455 19.7861 17.9455 21.3636C17.9455 22.9411 18.4872 24.3904 19.3879 25.5483L8.56596 36.3712C7.65502 35.5448 6.45096 35.0364 5.12727 35.0364C2.29958 35.0364 0 37.3359 0 40.1636C0 42.9913 2.29958 45.2909 5.12727 45.2909C7.95496 45.2909 10.2545 42.9913 10.2545 40.1636C10.2545 39.2792 10.0298 38.4469 9.63414 37.7196L20.5971 26.7567C21.5422 27.4916 22.6822 27.9838 23.9281 28.1402V36.8224C21.5072 37.2308 19.6554 39.3364 19.6554 41.8727C19.6554 44.7004 21.955 47 24.7827 47C27.6104 47 29.9099 44.7004 29.9099 41.8727C29.9099 39.3373 28.0581 37.2317 25.6372 36.8224V28.1402C26.8831 27.9838 28.0231 27.4916 28.9682 26.7567L35.5217 33.3102C35.2201 33.8195 35.0364 34.404 35.0364 35.0364C35.0364 36.9215 36.5694 38.4545 38.4545 38.4545C40.3397 38.4545 41.8727 36.9215 41.8727 35.0364C41.8727 33.1512 40.3397 31.6182 38.4545 31.6182C37.8222 31.6182 37.2377 31.8019 36.7292 32.1027L30.1757 25.5492C31.0764 24.3904 31.6182 22.9411 31.6182 21.3636C31.6182 19.7861 31.0764 18.3368 30.1757 17.1789L38.4349 8.91974C39.345 9.74609 40.549 10.2545 41.8727 10.2545C44.7004 10.2545 47 7.95496 47 5.12727C47 2.29958 44.7004 0 41.8727 0ZM9.4 7.69091C9.4 6.74834 10.1665 5.98182 11.1091 5.98182C12.0517 5.98182 12.8182 6.74834 12.8182 7.69091C12.8182 8.63347 12.0517 9.4 11.1091 9.4C10.1665 9.4 9.4 8.63347 9.4 7.69091ZM5.12727 43.5818C3.24215 43.5818 1.70909 42.0488 1.70909 40.1636C1.70909 38.2785 3.24215 36.7455 5.12727 36.7455C7.0124 36.7455 8.54545 38.2785 8.54545 40.1636C8.54545 42.0488 7.0124 43.5818 5.12727 43.5818ZM28.2 41.8727C28.2 43.7579 26.6669 45.2909 24.7818 45.2909C22.8967 45.2909 21.3636 43.7579 21.3636 41.8727C21.3636 39.9876 22.8967 38.4545 24.7818 38.4545C26.6669 38.4545 28.2 39.9876 28.2 41.8727ZM24.7818 26.4909C21.9541 26.4909 19.6545 24.1913 19.6545 21.3636C19.6545 18.5359 21.9541 16.2364 24.7818 16.2364C27.6095 16.2364 29.9091 18.5359 29.9091 21.3636C29.9091 24.1913 27.6095 26.4909 24.7818 26.4909ZM40.1636 35.0364C40.1636 35.9789 39.3971 36.7455 38.4545 36.7455C37.512 36.7455 36.7455 35.9789 36.7455 35.0364C36.7455 34.0938 37.512 33.3273 38.4545 33.3273C39.3971 33.3273 40.1636 34.0938 40.1636 35.0364ZM41.8727 8.54545C39.9876 8.54545 38.4545 7.0124 38.4545 5.12727C38.4545 3.24215 39.9876 1.70909 41.8727 1.70909C43.7579 1.70909 45.2909 3.24215 45.2909 5.12727C45.2909 7.0124 43.7579 8.54545 41.8727 8.54545Z" fill="white"/>
</g>
<defs>
<clipPath id="clip0_216_1292">
<rect width="47" height="47" fill="white"/>
</clipPath>
</defs>
</svg>
