<svg width="40" height="40" viewBox="0 0 40 40" fill="none" xmlns="http://www.w3.org/2000/svg">
<circle cx="20" cy="20" r="20" fill="#E7E7E7"/>
<g clip-path="url(#clip0_1_343)">
<path d="M31.6608 13.2692C31.5216 13.043 31.2671 12.9147 31.0021 12.9377L29.8289 13.0399L30.9503 10.7792C31.0839 10.5099 31.0311 10.1855 30.8192 9.97241C30.6071 9.75931 30.283 9.70499 30.0131 9.83716L27.045 11.2908C25.2112 10.3227 22.9202 10.61 21.3437 12.0461C20.028 13.2447 19.3364 15.0878 19.4654 16.9259C16.0265 16.5812 13.1157 14.6129 11.3944 11.4324C11.2802 11.2214 11.0661 11.0834 10.8268 11.0665C10.5871 11.0498 10.3561 11.1561 10.2134 11.3489C9.14582 12.7911 9.07091 14.7685 9.90782 16.3953C9.67712 16.337 9.43162 16.2582 9.15938 16.1672C8.92615 16.0892 8.66903 16.1392 8.48185 16.2987C8.29467 16.4583 8.20469 16.7042 8.24472 16.9469C8.57588 18.9546 9.74665 20.4976 11.5961 21.411C11.3553 21.4948 11.1096 21.5629 10.8597 21.615C10.6114 21.6668 10.4104 21.8484 10.3339 22.0902C10.2574 22.3319 10.3172 22.5961 10.4905 22.7813C11.8223 24.2049 13.7462 24.9056 15.1128 25.2417C13.559 26.4585 11.8818 26.6621 9.44453 26.5784C9.16241 26.5699 8.90248 26.7288 8.78387 26.9845C8.66531 27.2403 8.71131 27.5423 8.90078 27.7511C9.91678 28.871 13.6183 30.1338 17.5095 30.2285C17.6634 30.2322 17.8204 30.2342 17.9807 30.2342C20.7128 30.2342 24.3236 29.6485 26.9154 27.0567C28.8771 25.0951 30.1041 22.8368 30.5623 20.3447C30.9323 18.332 30.6984 16.7203 30.5861 15.9456C30.5778 15.8887 30.569 15.8282 30.5618 15.7754L31.6593 14.0066C31.7993 13.7809 31.7999 13.4955 31.6608 13.2692ZM29.1972 16.1471C29.4055 17.582 30.039 21.9486 25.9231 26.0644C23.5307 28.4568 20.0459 28.8864 17.5436 28.8256C15.4085 28.7737 13.4986 28.3653 12.1144 27.8996C12.6764 27.8307 13.1773 27.7243 13.65 27.5774C14.9533 27.1723 16.0543 26.4434 17.1148 25.2835C17.2916 25.0902 17.346 24.8146 17.2558 24.5686C17.1657 24.3226 16.9461 24.1474 16.6862 24.1141C16.0171 24.0283 14.0068 23.6899 12.4237 22.5979C12.8799 22.4113 13.3199 22.1778 13.74 21.8992C13.9705 21.7462 14.0897 21.4722 14.0443 21.1994C13.9989 20.9266 13.7976 20.7058 13.53 20.6356C12.2343 20.2959 10.6705 19.5358 9.94941 17.839C10.4099 17.9197 10.9106 17.9392 11.4446 17.8195C11.6921 17.7641 11.8904 17.5794 11.9632 17.3363C12.0361 17.0933 11.9721 16.8299 11.7959 16.6475C10.8987 15.7181 10.5631 14.3789 10.851 13.2329C11.7938 14.6107 12.9881 15.7703 14.3565 16.6276C16.107 17.7243 18.1501 18.3304 20.265 18.3802C20.4802 18.3847 20.6867 18.2908 20.8237 18.1241C20.9607 17.9574 21.0133 17.7369 20.9665 17.5263C20.6026 15.8905 21.1216 14.1467 22.2887 13.0836C23.4992 11.9809 25.2882 11.8136 26.6392 12.6771C26.8455 12.8089 27.1057 12.8237 27.3256 12.7159L28.7751 12.006L28.0165 13.5355C27.9037 13.7627 27.9224 14.0331 28.0654 14.2426C28.2083 14.4521 28.4529 14.5685 28.7059 14.5463L29.7281 14.4572L29.2572 15.2162C29.0992 15.4709 29.1319 15.697 29.1972 16.1471Z" fill="#302D2D"/>
</g>
<defs>
<clipPath id="clip0_1_343">
<rect width="23.5294" height="23.5294" fill="white" transform="translate(8.23535 8.23535)"/>
</clipPath>
</defs>
</svg>
